Coordinates
version=1
nRows=7
nColumns=32
inDegrees=yes

Units are S.I. units (second, meters, Newtons, ...)
If the header above contains a line with 'inDegrees', this indicates whether rotational values are in degrees (yes) or radians (no).

endheader
time	pelvis_tilt	pelvis_list	pelvis_rotation	pelvis_tx	pelvis_ty	pelvis_tz	hip_flexion_r	hip_adduction_r	hip_rotation_r	knee_angle_r	knee_adduction_r	med_cond_adduction_r	lat_cond_adduction_r	patella_r_constrained_knee_angle	hip_flexion_l	hip_adduction_l	hip_rotation_l	knee_angle_l	knee_adduction_l	med_cond_adduction_l	lat_cond_adduction_l	patella_l_constrained_knee_angle	lumbar_extension	lumbar_bending	lumbar_rotation	ankle_angle_r	subtalar_angle_r	mtp_angle_r	ankle_angle_l	subtalar_angle_l	mtp_angle_l
      0.68000000	      2.35776619	      2.79975418	     -0.78903505	     -0.67080136	      0.81096500	     -0.24969764	     19.59919037	     -3.27999074	     -1.11804508	    -63.99433512	     -0.76148601	      0.00000000	      0.00000000	     -1.11691185	      4.03530519	      7.72379518	     -3.86184522	    -16.47965785	      1.62026449	     -0.00000000	     -0.00000000	     -0.28762429	    -13.51460193	     -0.69338155	     -5.53780602	     -7.70295970	    -11.32140986	      0.00000000	      8.09763953	     -3.81814157	     -0.00000000
      0.68500000	      2.48362180	      2.41299704	     -0.31091082	     -0.66482329	      0.81161914	     -0.24972852	     20.14488916	     -3.03394476	     -1.50975314	    -63.20641764	     -0.70178065	      0.00000000	      0.00000000	     -1.10316010	      3.32310679	      7.33588926	     -3.81276503	    -16.41710949	      1.38224975	      0.00000000	      0.00000000	     -0.28653261	    -13.71951784	     -0.21917380	     -5.85977626	     -7.19502837	    -11.63215820	     -0.00000000	      8.88590371	     -2.63517543	      0.00000000
      0.69000000	      2.52236113	      2.33646283	     -0.16976805	     -0.65885275	      0.81218043	     -0.24963232	     20.87994824	     -3.08014231	     -1.36873975	    -62.45693830	     -0.48314391	     -0.00000000	     -0.00000000	     -1.09007921	      2.29185823	      7.29017108	     -3.15375768	    -15.40804261	      1.56509072	     -0.00000000	     -0.00000000	     -0.26892107	    -13.82407552	     -0.14244759	     -5.90504289	     -6.74385141	    -11.81653274	      0.00000000	      8.46320613	     -3.68525244	      0.00000000
      0.69500000	      2.61422343	      2.10631765	      0.13146582	     -0.65284291	      0.81265062	     -0.24956292	     21.46094867	     -2.96986330	     -1.52494270	    -61.55680994	     -0.39801950	     -0.00000000	     -0.00000000	     -1.07436901	      1.45984134	      7.06766258	     -2.95888696	    -14.97438647	      1.46446070	      0.00000000	      0.00000000	     -0.26135235	    -13.97564503	      0.12006280	     -6.08077038	     -6.38103557	    -12.04165802	     -0.00000000	      8.77075365	     -3.35030009	     -0.00000000
      0.70000000	      2.67504446	      1.96765665	      0.33053744	     -0.64689155	      0.81295867	     -0.24941230	     22.09169031	     -2.96255165	     -1.41096626	    -60.64618963	     -0.13625248	      0.00000000	      0.00000000	     -1.05847569	      0.63143592	      6.92674989	     -2.74480387	    -14.44999174	      1.44019960	     -0.00000000	     -0.00000000	     -0.25219993	    -14.09772111	      0.26646569	     -6.17692235	     -5.93614486	    -12.21193733	     -0.00000000	      8.92661840	     -3.32586912	     -0.00000000
      0.70500000	      2.77891117	      1.77326849	      0.66381255	     -0.64086330	      0.81328182	     -0.24936976	     22.58583796	     -2.90369452	     -1.65151626	    -59.57328728	     -0.11758118	      0.00000000	      0.00000000	     -1.03975001	     -0.22887988	      6.71560479	     -2.43308956	    -13.97914545	      1.39885253	      0.00000000	      0.00000000	     -0.24398211	    -14.25291714	      0.49927376	     -6.39839653	     -5.64457013	    -12.38040805	      0.00000000	      9.14699274	     -3.19480095	      0.00000000
      0.71000000	      2.81168916	      1.70586168	      0.88384869	     -0.63494032	      0.81335510	     -0.24922386	     23.19474641	     -2.99146378	     -1.54131126	    -58.52581814	      0.14674730	     -0.00000000	     -0.00000000	     -1.02146822	     -1.01583610	      6.64197341	     -2.16261255	    -13.48240541	      1.36826388	     -0.00000000	     -0.00000000	     -0.23531237	    -14.34881167	      0.54658119	     -6.53678636	     -5.26010341	    -12.46451731	      0.00000000	      9.31580170	     -3.16968104	      0.00000000
